<?xml version="1.0" encoding="utf-8"?>
<!-- Generator: Adobe Illustrator 21.1.0, SVG Export Plug-In . SVG Version: 6.00 Build 0)  -->
<svg version="1.1" id="Layer_1" xmlns="http://www.w3.org/2000/svg" xmlns:xlink="http://www.w3.org/1999/xlink" x="0px" y="0px"
	 viewBox="0 0 100 100" style="enable-background:new 0 0 100 100;" xml:space="preserve">
<style type="text/css">
	.st0{fill:#181818;}
	.st1{enable-background:new    ;}
	.st2{fill:#FAAF40;}
</style>
<path class="st0" d="M99.1,17.2c2.2,4.1,0.3,12.2-5.9,24.2c-6.1,12-14.6,23-25.4,32.9c-10.8,10-18.4,16-22.6,18.1
	c-7.1,3.9-13.1,2-17.9-5.6S17.5,70.3,12.5,60C5,44.8,0.9,33.8,0.2,26.9C-0.5,20.1,0.5,16,3,14.7c8.1-4,20.4-6.7,36.7-8.2
	c16.4-1.5,29.8-1,40.4,1.6C90.8,10.6,97.1,13.6,99.1,17.2z"/>
<g>
	<g class="st1">
		<path class="st2" d="M19.2,36.1c1.6-0.3,3.9-0.4,6.5-0.4c3.2,0,5.4,0.5,7,1.7c1.3,1,2,2.5,2,4.5c0,2.8-2,4.6-3.8,5.3v0.1
			c1.5,0.6,2.3,2,2.9,4c0.7,2.4,1.3,5.2,1.8,6.1h-5c-0.4-0.6-0.9-2.4-1.5-5c-0.6-2.7-1.5-3.4-3.5-3.5H24v8.5h-4.8V36.1z M24,45.4h2
			c2.4,0,3.9-1.2,3.9-3.1c0-2-1.3-3-3.6-3c-1.2,0-1.9,0.1-2.2,0.2L24,45.4L24,45.4z"/>
		<path class="st2" d="M43.5,51.9L42,57.4h-5.1l6.6-21.6h6.4l6.7,21.6h-5.2l-1.7-5.5H43.5z M49,48.2l-1.3-4.6
			c-0.4-1.3-0.8-2.9-1.1-4.2h-0.1c-0.3,1.3-0.6,2.9-1,4.2l-1.3,4.6H49z"/>
		<path class="st2" d="M61.1,57.4L56,35.8h5.2l1.6,8.9c0.5,2.6,0.9,5.3,1.3,7.5h0.1c0.4-2.3,0.9-4.9,1.4-7.6l1.8-8.8h5.2l1.7,9.1
			c0.5,2.5,0.8,4.8,1.2,7.2h0.1c0.3-2.4,0.8-4.9,1.2-7.5l1.8-8.8h5L78,57.4h-5.3l-1.8-9.3c-0.4-2.2-0.8-4.2-1-6.7h-0.1
			c-0.4,2.4-0.7,4.5-1.2,6.7l-2,9.3C66.6,57.4,61.1,57.4,61.1,57.4z"/>
	</g>
</g>
</svg>
