<?xml version="1.0" encoding="utf-8"?>
<!-- Generator: Adobe Illustrator 21.1.0, SVG Export Plug-In . SVG Version: 6.00 Build 0)  -->
<svg version="1.1" id="Layer_1" xmlns="http://www.w3.org/2000/svg" xmlns:xlink="http://www.w3.org/1999/xlink" x="0px" y="0px"
	 viewBox="0 0 100 100" style="enable-background:new 0 0 100 100;" xml:space="preserve">
<style type="text/css">
	.st0{fill:#181818;}
	.st1{enable-background:new    ;}
	.st2{fill:#FAAF40;}
</style>
<path class="st0" d="M99.1,17.2c2.2,4.1,0.3,12.2-5.9,24.2c-6.1,12-14.6,23-25.4,32.9c-10.8,10-18.4,16-22.6,18.1
	c-7.1,3.9-13.1,2-17.9-5.6S17.5,70.3,12.5,60C5,44.8,0.9,33.8,0.2,26.9C-0.5,20.1,0.5,16,3,14.7c8.1-4,20.4-6.7,36.7-8.2
	c16.4-1.5,29.8-1,40.4,1.6C90.8,10.6,97.1,13.6,99.1,17.2z"/>
<g>
	<g class="st1">
		<path class="st2" d="M23.5,52.4c1.3,0.7,3.3,1.3,5.4,1.3c2.2,0,3.4-0.9,3.4-2.3c0-1.3-1-2.1-3.6-3c-3.6-1.2-5.9-3.2-5.9-6.4
			c0-3.7,3.1-6.5,8.2-6.5c2.4,0,4.2,0.5,5.5,1.1l-1.1,3.9c-0.9-0.4-2.4-1-4.5-1s-3.1,1-3.1,2.1c0,1.4,1.2,2,4,3
			c3.8,1.4,5.6,3.4,5.6,6.4c0,3.6-2.8,6.7-8.7,6.7c-2.5,0-4.9-0.6-6.1-1.3L23.5,52.4z"/>
		<path class="st2" d="M45.5,35.8v12.4c0,3.7,1.4,5.6,3.9,5.6c2.6,0,4-1.8,4-5.6V35.8h4.9v12.1c0,6.7-3.4,9.8-9,9.8
			c-5.4,0-8.6-3-8.6-9.9v-12C40.7,35.8,45.5,35.8,45.5,35.8z"/>
		<path class="st2" d="M62.5,36.1c1.3-0.3,3.9-0.4,6.3-0.4c3,0,4.8,0.3,6.4,1.2c1.5,0.8,2.6,2.3,2.6,4.2s-1.1,3.7-3.6,4.6v0.1
			c2.5,0.7,4.3,2.5,4.3,5.3c0,2-0.9,3.5-2.2,4.6c-1.6,1.2-4.2,2-8.5,2c-2.4,0-4.2-0.2-5.3-0.3L62.5,36.1L62.5,36.1z M67.3,44.4h1.6
			c2.6,0,3.9-1.1,3.9-2.7c0-1.6-1.2-2.5-3.5-2.5c-1.1,0-1.7,0.1-2.1,0.1L67.3,44.4L67.3,44.4z M67.3,53.9c0.5,0.1,1.1,0.1,1.9,0.1
			c2.2,0,4.2-0.8,4.2-3.1c0-2.2-2-3-4.4-3h-1.7V53.9z"/>
	</g>
</g>
</svg>
